<mxfile host="app.diagrams.net" modified="2023-10-22T11:37:39.882Z" agent="Mozilla/5.0 (Macintosh; Intel Mac OS X 10_15_7) AppleWebKit/537.36 (KHTML, like Gecko) Chrome/118.0.0.0 Safari/537.36" etag="YeIq_a_0QQXV3O_7-V3_" version="22.0.6" type="github">
  <diagram name="第 1 页" id="InC7F5kwpcaetfhoXfsr">
    <mxGraphModel dx="1803" dy="513" grid="1" gridSize="10" guides="1" tooltips="1" connect="1" arrows="1" fold="1" page="1" pageScale="1" pageWidth="827" pageHeight="1169" math="0" shadow="0">
      <root>
        <mxCell id="0" />
        <mxCell id="1" parent="0" />
        <mxCell id="lrW4jDTgQNn0qahZzyx1-30" style="edgeStyle=orthogonalEdgeStyle;rounded=0;orthogonalLoop=1;jettySize=auto;html=1;exitX=0.75;exitY=1;exitDx=0;exitDy=0;entryX=0.75;entryY=0;entryDx=0;entryDy=0;" edge="1" parent="1" source="lrW4jDTgQNn0qahZzyx1-2" target="lrW4jDTgQNn0qahZzyx1-7">
          <mxGeometry relative="1" as="geometry" />
        </mxCell>
        <mxCell id="lrW4jDTgQNn0qahZzyx1-2" value="slave节点" style="whiteSpace=wrap;html=1;rounded=0;fillColor=#ffe6cc;strokeColor=#d79b00;" vertex="1" parent="1">
          <mxGeometry x="120" y="180" width="120" height="30" as="geometry" />
        </mxCell>
        <mxCell id="lrW4jDTgQNn0qahZzyx1-7" value="master节点" style="whiteSpace=wrap;html=1;rounded=0;fillColor=#ffe6cc;strokeColor=#d79b00;" vertex="1" parent="1">
          <mxGeometry x="120" y="480" width="120" height="30" as="geometry" />
        </mxCell>
        <mxCell id="lrW4jDTgQNn0qahZzyx1-10" value="定时发送ping向master发送ping命令" style="text;html=1;align=center;verticalAlign=middle;resizable=0;points=[];autosize=1;strokeColor=none;fillColor=none;rounded=0;" vertex="1" parent="1">
          <mxGeometry x="220" y="280" width="210" height="30" as="geometry" />
        </mxCell>
        <mxCell id="lrW4jDTgQNn0qahZzyx1-21" style="edgeStyle=orthogonalEdgeStyle;rounded=0;orthogonalLoop=1;jettySize=auto;html=1;entryX=0.5;entryY=1;entryDx=0;entryDy=0;" edge="1" parent="1">
          <mxGeometry relative="1" as="geometry">
            <mxPoint x="-200" y="210" as="targetPoint" />
            <mxPoint x="-80" y="310" as="sourcePoint" />
          </mxGeometry>
        </mxCell>
        <mxCell id="lrW4jDTgQNn0qahZzyx1-23" style="edgeStyle=orthogonalEdgeStyle;rounded=0;orthogonalLoop=1;jettySize=auto;html=1;exitX=0.5;exitY=0;exitDx=0;exitDy=0;entryX=0;entryY=0.5;entryDx=0;entryDy=0;fillColor=#0050ef;strokeColor=#001DBC;" edge="1" parent="1" source="lrW4jDTgQNn0qahZzyx1-22" target="lrW4jDTgQNn0qahZzyx1-2">
          <mxGeometry relative="1" as="geometry" />
        </mxCell>
        <mxCell id="lrW4jDTgQNn0qahZzyx1-51" style="orthogonalLoop=1;jettySize=auto;html=1;exitX=0;exitY=0.5;exitDx=0;exitDy=0;entryX=0;entryY=0.75;entryDx=0;entryDy=0;edgeStyle=orthogonalEdgeStyle;rounded=0;fillColor=#6a00ff;strokeColor=#3700CC;" edge="1" parent="1" source="lrW4jDTgQNn0qahZzyx1-22" target="lrW4jDTgQNn0qahZzyx1-7">
          <mxGeometry relative="1" as="geometry">
            <Array as="points">
              <mxPoint x="-500" y="180" />
              <mxPoint x="-500" y="503" />
            </Array>
          </mxGeometry>
        </mxCell>
        <mxCell id="lrW4jDTgQNn0qahZzyx1-22" value="写入master节点的&lt;br&gt;“复制积压缓冲区”" style="rounded=0;whiteSpace=wrap;html=1;" vertex="1" parent="1">
          <mxGeometry x="-260" y="150" width="120" height="60" as="geometry" />
        </mxCell>
        <mxCell id="lrW4jDTgQNn0qahZzyx1-24" value="待同步完毕后=&amp;gt;&lt;br&gt;1、再将缓冲区数据追加到slave节点的持久化文中&amp;nbsp;&lt;br&gt;2、将缓冲区数据，写入master主存中" style="text;html=1;align=center;verticalAlign=middle;resizable=0;points=[];autosize=1;rounded=0;" vertex="1" parent="1">
          <mxGeometry x="-440" y="80" width="290" height="60" as="geometry" />
        </mxCell>
        <mxCell id="lrW4jDTgQNn0qahZzyx1-38" style="edgeStyle=none;orthogonalLoop=1;jettySize=auto;html=1;exitX=0;exitY=0.25;exitDx=0;exitDy=0;entryX=1;entryY=0.5;entryDx=0;entryDy=0;rounded=0;" edge="1" parent="1" source="lrW4jDTgQNn0qahZzyx1-31" target="lrW4jDTgQNn0qahZzyx1-39">
          <mxGeometry relative="1" as="geometry">
            <mxPoint x="10" y="425" as="targetPoint" />
          </mxGeometry>
        </mxCell>
        <mxCell id="lrW4jDTgQNn0qahZzyx1-31" value="触发bgsave持久化" style="whiteSpace=wrap;html=1;rounded=0;" vertex="1" parent="1">
          <mxGeometry x="80" y="420" width="110" height="20" as="geometry" />
        </mxCell>
        <mxCell id="lrW4jDTgQNn0qahZzyx1-37" style="edgeStyle=none;orthogonalLoop=1;jettySize=auto;html=1;exitX=0.25;exitY=0;exitDx=0;exitDy=0;entryX=0.627;entryY=1.05;entryDx=0;entryDy=0;entryPerimeter=0;rounded=0;" edge="1" parent="1" source="lrW4jDTgQNn0qahZzyx1-7" target="lrW4jDTgQNn0qahZzyx1-31">
          <mxGeometry relative="1" as="geometry" />
        </mxCell>
        <mxCell id="lrW4jDTgQNn0qahZzyx1-41" style="edgeStyle=orthogonalEdgeStyle;orthogonalLoop=1;jettySize=auto;html=1;exitX=0.5;exitY=0;exitDx=0;exitDy=0;entryX=0.25;entryY=1;entryDx=0;entryDy=0;rounded=0;" edge="1" parent="1" source="lrW4jDTgQNn0qahZzyx1-39" target="lrW4jDTgQNn0qahZzyx1-2">
          <mxGeometry relative="1" as="geometry" />
        </mxCell>
        <mxCell id="lrW4jDTgQNn0qahZzyx1-39" value="持久化完成？" style="rhombus;whiteSpace=wrap;html=1;rounded=0;" vertex="1" parent="1">
          <mxGeometry x="-170" y="400" width="180" height="50" as="geometry" />
        </mxCell>
        <mxCell id="lrW4jDTgQNn0qahZzyx1-42" value="master节点的主进程fork出一个子进程向slave发送数据&lt;br style=&quot;border-color: var(--border-color);&quot;&gt;slave节点将数据写入持久化文件中，随后加载到内存" style="text;html=1;align=center;verticalAlign=middle;resizable=0;points=[];autosize=1;strokeColor=none;fillColor=none;rounded=0;" vertex="1" parent="1">
          <mxGeometry x="-400" y="360" width="310" height="40" as="geometry" />
        </mxCell>
        <mxCell id="lrW4jDTgQNn0qahZzyx1-43" value="是" style="text;html=1;align=center;verticalAlign=middle;resizable=0;points=[];autosize=1;strokeColor=none;fillColor=none;rounded=0;" vertex="1" parent="1">
          <mxGeometry x="-80" y="360" width="40" height="30" as="geometry" />
        </mxCell>
        <mxCell id="lrW4jDTgQNn0qahZzyx1-44" value="如果发送过程中，master接收了写操作" style="text;html=1;align=center;verticalAlign=middle;resizable=0;points=[];autosize=1;strokeColor=none;fillColor=none;rounded=0;" vertex="1" parent="1">
          <mxGeometry x="-420" y="280" width="230" height="30" as="geometry" />
        </mxCell>
        <mxCell id="lrW4jDTgQNn0qahZzyx1-45" value="&lt;span style=&quot;padding: 0px; margin: 0px; border: 0px; font-variant-numeric: inherit; font-variant-east-asian: inherit; font-variant-alternates: inherit; font-variant-position: inherit; font-stretch: inherit; font-size: 10px; line-height: inherit; font-family: SFUIText, PingFangSC-Regular, &amp;quot;Helvetica Neue&amp;quot;, Helvetica, Arial, sans-serif; font-optical-sizing: inherit; font-kerning: inherit; font-feature-settings: inherit; font-variation-settings: inherit; vertical-align: baseline; color: transparent; position: absolute; cursor: text; transform-origin: 0% 0%; top: 0px; height: 100px; width: 714.375px; text-align: start; background-color: rgb(255, 255, 255);&quot; id=&quot;page707R_mcid29&quot; class=&quot;markedContent&quot;&gt;&lt;span style=&quot;padding: 0px; margin: 0px; border: 0px; font-style: inherit; font-variant: inherit; font-weight: inherit; font-stretch: inherit; font-size: calc(var(--scale-factor)*10.56px); line-height: inherit; font-family: sans-serif; font-optical-sizing: inherit; font-kerning: inherit; font-feature-settings: inherit; font-variation-settings: inherit; vertical-align: baseline; position: absolute; cursor: text; transform-origin: 0% 0%; height: 100px; width: 714.375px; left: calc(var(--scale-factor)*249.05px); top: calc(var(--scale-factor)*127.81px);&quot; dir=&quot;ltr&quot; role=&quot;presentation&quot;&gt;&lt;br&gt;&lt;/span&gt;&lt;/span&gt;" style="text;html=1;align=center;verticalAlign=middle;resizable=0;points=[];autosize=1;strokeColor=none;fillColor=none;rounded=0;" vertex="1" parent="1">
          <mxGeometry x="300" y="328" width="20" height="10" as="geometry" />
        </mxCell>
      </root>
    </mxGraphModel>
  </diagram>
</mxfile>
